<svg xmlns="http://www.w3.org/2000/svg" width="1080" height="1080" xml:space="preserve"><path style="stroke:#4f12ff;stroke-width:0;stroke-dasharray:none;stroke-linecap:butt;stroke-dashoffset:0;stroke-linejoin:miter;stroke-miterlimit:4;fill:#4f12ff;fill-rule:nonzero;opacity:1" vector-effect="non-scaling-stroke" transform="translate(7.978 24.867) scale(60.32)" d="M11.03 17.03c-.55-.03-1.09-.16-1.75-.42-1.81-.72-4.27-2.51-7.22-5.27C1.41 10.73.33 9.68.11 9.43c-.1-.11-.1-.11 1.18-1.33 1.28-1.23 1.28-1.23 1.66-.85 2.34 2.34 4.67 4.31 6.34 5.36.46.29 1.18.67 1.21.65.01-.01-.16-.27-.33-.51-.3-.43-.69-.9-1.39-1.7-.81-.93-1.12-1.3-1.41-1.66-1-1.25-1.44-2.15-1.49-3.07-.02-.32.01-.55.09-.86.15-.57.49-1.07 1.01-1.48.33-.27.66-.44 1.12-.6.14-.05 2.32-.82 4.85-1.72S17.55.03 17.56.03c0 0-1.87 10.12-1.88 10.16-.01.02-.11-.06-.85-.69-.89-.76-.93-.79-1.45-1.11-1.01-.63-1.97-1.11-2.77-1.38-.3-.1-.72-.21-.74-.2-.01.01.37.49.69.88.1.11.38.44.63.73.97 1.12 1.28 1.48 1.7 2.05.41.54.69.99.92 1.47.21.42.32.71.4 1.06.17.69.16 1.31-.04 1.91-.27.81-.82 1.47-1.56 1.83-.36.18-.79.29-1.17.3-.08 0-.17.01-.2.01h-.23z"/></svg>