<svg version="1.0" xmlns="http://www.w3.org/2000/svg" viewBox="0 0 50 17"><g fill="#000"><path d="M24.48 13.46c-.78-.08-1.44-.32-1.98-.73-.6-.45-.97-1.08-1.06-1.79-.01-.11-.01-.12.01-.15.03-.03.03-.03 1.2-.03 1.18 0 1.18 0 1.18.05.02.11.05.22.08.28.12.25.36.44.69.53.1.03.13.03.37.03s.28 0 .37-.03c.22-.06.38-.17.45-.32.07-.14.06-.34-.02-.47-.12-.19-.47-.32-1.51-.58-1.08-.27-1.52-.45-1.91-.77-.39-.33-.59-.67-.67-1.14-.02-.1-.02-.2-.02-.41 0-.25 0-.29.03-.44.09-.43.27-.78.57-1.09.61-.63 1.61-.95 2.8-.89 1.1.05 1.88.41 2.44 1.12.3.38.5.86.57 1.4.03.19.17.17-1.13.17-1.12 0-1.12 0-1.12-.04 0-.05-.06-.25-.1-.32a.868.868 0 0 0-.4-.38c-.17-.09-.27-.11-.53-.11-.19 0-.24 0-.35.02-.23.05-.38.15-.46.3-.04.08-.04.09-.04.22 0 .12 0 .14.03.21.1.21.39.34 1.19.54.45.11.84.22 1.16.33.63.21.88.35 1.22.7.3.3.44.57.53.97.19.96-.19 1.82-1.03 2.34-.4.25-.89.41-1.45.49-.21.03-.92.03-1.15.01zM32.12 13.48c-.32-.03-.59-.08-.83-.15-.87-.24-1.57-.75-2.04-1.46-.4-.61-.62-1.31-.65-2.13-.04-1.03.17-1.9.65-2.62.58-.87 1.51-1.43 2.65-1.57.35-.04.88-.04 1.23 0 1.05.13 1.93.62 2.51 1.39.4.53.64 1.16.73 1.89.04.3.03 1.04-.02 1.26-.01.03-.01.03-2.66.03-2.66 0-2.66 0-2.65.08.08.71.54 1.2 1.2 1.29.16.02.41.01.56-.02.36-.08.64-.3.81-.64.03-.07.03-.07 1.3-.07 1.26 0 1.26 0 1.29.03.02.03.02.04-.01.15-.12.41-.35.86-.64 1.22-.51.63-1.28 1.09-2.12 1.26-.31.06-.42.07-.84.08h-.45zm1.75-4.88c-.04-.54-.43-.96-1.02-1.09-.12-.03-.47-.04-.6-.02-.34.05-.68.22-.88.47-.14.16-.23.36-.3.6-.02.07-.03.13-.03.13s.64.01 1.42.01c1.42 0 1.42 0 1.42-.11zM37.1 13.36c-.03-.03-.03-.03-.03-3.86s0-3.83.03-3.86c.03-.03.03-.03 1.19-.03 1.17 0 1.17 0 1.19.03.03.03.03.03.03.46 0 .24 0 .43.01.43l.04-.04c.22-.27.58-.54.94-.69.25-.11.52-.19.8-.23.18-.03.78-.03.97-.01 1.29.18 2.18 1.04 2.44 2.36.08.42.08.26.08 2.96 0 2.45 0 2.45-.02 2.48-.03.03-.03.03-1.19.03s-1.16 0-1.19-.03c-.03-.03-.03-.03-.03-2.27 0-2.23 0-2.25-.03-2.36-.13-.59-.45-.95-.98-1.09a2.32 2.32 0 0 0-.7-.02c-.3.05-.54.17-.74.37-.19.19-.31.44-.37.76-.03.14-.03.14-.03 2.36 0 2.22 0 2.22-.03 2.25-.03.03-.03.03-1.19.03-1.17 0-1.17 0-1.19-.03zM48.47 13.37c-.32-.02-.65-.08-.94-.17-.17-.06-.49-.22-.63-.32-.55-.4-.84-.99-.9-1.89-.01-.1-.01-.84-.01-1.76 0-1.59 0-1.59-.44-1.59-.42 0-.45 0-.47-.02-.02-.02-.02-.11-.02-1 0-.93 0-.98.02-1 .02-.02.07-.02.47-.02.44 0 .44 0 .44-.91s0-.91.03-.94c.03-.03.03-.03 1.19-.03 1.17 0 1.17 0 1.19.03.03.03.03.03.03.94 0 .91 0 .91.75.91.71 0 .75 0 .77.02.02.02.02.11.02 1 0 .93 0 .98-.02 1-.02.02-.09.02-.77.02-.75 0-.75 0-.74 1.61 0 1.42 0 1.62.02 1.67.06.2.16.29.38.34.07.01.2.02.6.03.32 0 .52.01.53.02.01.01.01.23.01 1.02 0 .96 0 1.01-.02 1.03-.02.02-.08.02-.67.02-.36 0-.73-.01-.82-.01z"/></g><path d="M11.03 17.03c-.55-.03-1.09-.16-1.75-.42-1.81-.72-4.27-2.51-7.22-5.27C1.41 10.73.33 9.68.11 9.43c-.1-.11-.1-.11 1.18-1.33 1.28-1.23 1.28-1.23 1.66-.85 2.34 2.34 4.67 4.31 6.34 5.36.46.29 1.18.67 1.21.65.01-.01-.16-.27-.33-.51-.3-.43-.69-.9-1.39-1.7-.81-.93-1.12-1.3-1.41-1.66-1-1.25-1.44-2.15-1.49-3.07-.02-.32.01-.55.09-.86.15-.57.49-1.07 1.01-1.48.33-.27.66-.44 1.12-.6.14-.05 2.32-.82 4.85-1.72S17.55.03 17.56.03c0 0-1.87 10.12-1.88 10.16-.01.02-.11-.06-.85-.69-.89-.76-.93-.79-1.45-1.11-1.01-.63-1.97-1.11-2.77-1.38-.3-.1-.72-.21-.74-.2-.01.01.37.49.69.88.1.11.38.44.63.73.97 1.12 1.28 1.48 1.7 2.05.41.54.69.99.92 1.47.21.42.32.71.4 1.06.17.69.16 1.31-.04 1.91-.27.81-.82 1.47-1.56 1.83-.36.18-.79.29-1.17.3-.08 0-.17.01-.2.01h-.23z" fill="#4f12ff"/></svg>